<?xml version="1.0" standalone="no"?>
<!DOCTYPE svg PUBLIC "-//W3C//DTD SVG 20010904//EN"
 "http://www.w3.org/TR/2001/REC-SVG-20010904/DTD/svg10.dtd">
<svg version="1.0" xmlns="http://www.w3.org/2000/svg"
 width="64.000000pt" height="64.000000pt" viewBox="0 0 64.000000 64.000000"
 preserveAspectRatio="xMidYMid meet">

<g transform="translate(0.000000,64.000000) scale(0.100000,-0.100000)"
fill="#000000" stroke="none">
<path d="M454 617 c-3 -8 -4 -43 -2 -78 l3 -64 85 0 85 0 0 75 0 75 -83 3
c-63 2 -84 0 -88 -11z m156 -67 l0 -60 -70 0 -70 0 0 60 0 60 70 0 70 0 0 -60z"/>
<path d="M570 550 c0 -22 5 -40 10 -40 6 0 10 18 10 40 0 22 -4 40 -10 40 -5
0 -10 -18 -10 -40z"/>
<path d="M530 540 c0 -16 5 -30 10 -30 6 0 10 14 10 30 0 17 -4 30 -10 30 -5
0 -10 -13 -10 -30z"/>
<path d="M490 525 c0 -8 5 -15 10 -15 6 0 10 7 10 15 0 8 -4 15 -10 15 -5 0
-10 -7 -10 -15z"/>
<path d="M226 594 c-71 -22 -159 -112 -180 -184 -23 -78 -17 -178 11 -187 9
-3 9 5 1 34 -22 82 8 187 73 252 57 58 104 76 197 76 84 0 106 8 51 19 -49 9
-99 6 -153 -10z"/>
<path d="M280 455 c0 -9 -9 -15 -25 -15 -14 0 -25 -4 -25 -10 0 -5 7 -10 15
-10 12 0 15 -18 15 -100 0 -82 -3 -100 -15 -100 -8 0 -15 -4 -15 -10 0 -5 11
-10 25 -10 16 0 25 -6 25 -15 0 -8 5 -15 10 -15 6 0 10 7 10 15 0 8 5 15 10
15 6 0 10 -7 10 -15 0 -8 5 -15 10 -15 6 0 10 6 10 13 0 7 15 17 32 22 43 13
59 55 37 94 -11 19 -13 33 -6 48 15 34 0 74 -33 86 -17 6 -30 17 -30 24 0 7
-4 13 -10 13 -5 0 -10 -7 -10 -15 0 -8 -4 -15 -10 -15 -5 0 -10 7 -10 15 0 8
-4 15 -10 15 -5 0 -10 -7 -10 -15z m94 -51 c35 -34 6 -74 -55 -74 l-39 0 0 45
0 45 39 0 c23 0 46 -7 55 -16z m10 -110 c36 -36 6 -74 -60 -74 l-44 0 0 45 0
45 44 0 c27 0 51 -6 60 -16z"/>
<path d="M577 403 c5 -16 8 -57 8 -93 0 -54 -6 -75 -31 -120 -61 -107 -189
-163 -302 -131 -25 7 -32 7 -29 -2 9 -28 109 -34 187 -11 75 22 162 109 184
184 9 30 16 70 16 89 0 46 -18 111 -31 111 -5 0 -6 -11 -2 -27z"/>
<path d="M39 161 c-20 -20 -29 -39 -29 -61 0 -43 47 -90 90 -90 43 0 90 47 90
90 0 43 -47 90 -90 90 -22 0 -41 -9 -61 -29z m106 -16 c14 -13 25 -33 25 -45
0 -27 -43 -70 -70 -70 -27 0 -70 43 -70 70 0 27 43 70 70 70 12 0 32 -11 45
-25z"/>
<path d="M82 138 c-27 -35 2 -104 33 -78 23 19 11 90 -15 90 -4 0 -12 -6 -18
-12z"/>
</g>
</svg>
