<?xml version="1.0" standalone="no"?>
<!DOCTYPE svg PUBLIC "-//W3C//DTD SVG 20010904//EN"
 "http://www.w3.org/TR/2001/REC-SVG-20010904/DTD/svg10.dtd">
<svg version="1.0" xmlns="http://www.w3.org/2000/svg"
 width="2500.000000pt" height="2500.000000pt" viewBox="0 0 2500.000000 2500.000000"
 preserveAspectRatio="xMidYMid meet">

<g transform="translate(0.000000,2500.000000) scale(0.100000,-0.100000)"
fill="#000000" stroke="none">
<path d="M17435 19988 c-74 -41 -108 -107 -103 -198 5 -86 34 -131 90 -136 21
-2 41 2 44 8 12 18 10 338 -1 338 -5 0 -19 -6 -30 -12z"/>
<path d="M4029 19200 c-51 -27 -105 -93 -125 -153 -25 -75 -16 -188 20 -250
32 -54 104 -120 124 -112 8 3 10 0 6 -7 -5 -8 -2 -9 10 -5 10 4 20 7 22 7 10
0 3 47 -10 65 -27 40 -57 191 -51 263 9 111 23 170 46 198 16 19 1 17 -42 -6z"/>
<path d="M10160 18320 c-8 -5 -10 -10 -5 -10 6 0 17 5 25 10 8 5 11 10 5 10
-5 0 -17 -5 -25 -10z"/>
<path d="M10045 18271 c-44 -21 -98 -44 -120 -51 -22 -7 -44 -16 -50 -20 -5
-4 -71 -38 -145 -75 -187 -94 -348 -189 -645 -379 -92 -59 -333 -227 -397
-277 -719 -562 -1267 -1235 -1651 -2023 -39 -81 -46 -88 -154 -166 -466 -337
-912 -812 -1175 -1250 -212 -354 -353 -735 -414 -1115 -22 -138 -30 -530 -15
-692 32 -332 139 -689 308 -1027 66 -132 228 -396 244 -396 4 0 11 -10 15 -22
9 -30 40 -69 48 -61 3 3 6 -2 6 -11 0 -10 13 -31 29 -47 17 -16 33 -38 36 -49
4 -11 13 -20 21 -20 8 0 14 -7 14 -15 0 -9 7 -18 15 -21 8 -4 15 -13 15 -22 0
-8 2 -13 5 -10 3 3 58 -46 121 -109 63 -62 133 -125 155 -138 21 -14 51 -39
65 -55 15 -16 30 -27 35 -24 4 2 16 -7 25 -21 9 -13 32 -34 53 -46 20 -12 41
-27 46 -33 21 -22 74 -56 78 -48 8 17 -3 32 -95 127 -53 55 -110 118 -128 140
-17 22 -53 63 -79 90 -94 99 -261 308 -367 461 -158 227 -240 368 -336 584
-99 220 -136 331 -163 488 -18 108 -18 179 3 240 11 33 19 42 37 42 36 0 69
-18 90 -50 11 -16 23 -26 28 -23 13 8 27 -17 27 -47 1 -20 2 -22 10 -9 6 10 6
30 0 50 -4 19 -12 59 -15 89 -4 30 -10 60 -14 65 -12 17 -30 87 -36 142 -3 29
-17 87 -31 130 -56 174 -47 428 27 783 34 162 54 233 104 365 44 118 159 358
180 375 8 7 15 19 15 26 0 17 35 80 70 124 15 19 34 49 43 66 9 17 45 68 81
114 36 46 66 88 66 94 0 7 25 36 56 66 31 30 70 75 86 100 41 59 242 271 343
360 124 111 344 284 351 278 1 -2 -15 -49 -38 -103 -99 -244 -163 -427 -245
-705 -49 -164 -109 -434 -138 -615 -13 -82 -26 -157 -29 -165 -3 -8 -15 -118
-27 -245 -24 -267 -29 -720 -10 -975 12 -160 55 -492 70 -545 5 -16 17 -81 27
-144 14 -96 20 -114 36 -119 13 -3 16 -7 8 -12 -7 -4 -8 -21 -4 -48 4 -23 11
-39 16 -36 4 3 7 13 6 22 -2 13 3 16 22 14 20 -1 29 5 44 33 10 19 23 32 27
29 5 -3 9 3 9 13 1 17 2 17 15 -1 11 -14 12 -23 4 -33 -9 -10 -7 -13 8 -13 14
0 22 -10 29 -37 7 -27 15 -37 32 -40 21 -3 23 0 18 24 -3 16 -8 60 -11 99 -6
78 -8 91 -23 149 -6 22 -12 67 -13 100 -2 33 -5 64 -8 69 -2 5 -5 21 -6 35 -1
14 -5 44 -8 66 -3 22 -11 87 -16 145 -51 528 -34 1138 44 1590 38 219 51 286
82 415 51 216 57 237 97 370 38 128 80 257 95 290 5 11 18 45 29 75 44 120
114 296 121 305 4 6 15 28 23 50 27 69 159 335 226 455 219 392 478 756 777
1090 81 91 412 418 485 479 41 35 95 81 120 102 25 21 70 58 100 81 30 24 60
47 66 53 6 5 22 17 34 25 12 8 40 29 61 45 21 17 54 41 74 55 20 14 64 46 98
71 63 46 234 155 317 201 25 14 88 50 140 79 52 30 133 72 180 94 130 60 216
104 205 104 -5 0 -46 -18 -90 -38z"/>
<path d="M7160 17777 c-67 -33 -151 -122 -189 -198 -33 -68 -66 -216 -56 -256
3 -15 -3 -27 -21 -42 -30 -24 -27 -26 10 -10 35 16 69 5 107 -36 19 -19 36
-35 39 -35 6 0 34 54 44 82 3 9 8 61 11 115 9 141 24 239 45 288 10 24 16 46
12 49 -3 3 7 20 23 36 34 36 33 36 -25 7z"/>
<path d="M18669 17756 c-177 -91 -418 -299 -550 -476 -61 -80 -159 -246 -159
-267 0 -7 8 -13 18 -12 11 0 30 27 57 81 22 44 54 99 71 122 112 151 143 189
212 260 116 118 244 219 367 288 61 34 48 37 -16 4z"/>
<path d="M19570 17620 c8 -5 25 -10 38 -10 25 0 138 -36 242 -77 147 -58 328
-181 447 -303 53 -54 158 -191 186 -240 13 -25 38 -70 55 -100 44 -81 100
-237 123 -348 16 -74 21 -137 22 -262 1 -173 -14 -277 -64 -433 -34 -103 -127
-282 -192 -369 -75 -99 -244 -270 -298 -300 -37 -21 -50 -38 -29 -38 23 0 119
56 195 113 44 33 82 63 85 67 3 3 18 16 34 28 47 36 154 161 208 242 182 274
256 627 198 948 -20 113 -45 191 -64 204 -5 4 -11 25 -12 46 -1 22 -7 48 -13
59 -9 16 -10 14 -11 -12 0 -27 -3 -25 -26 25 -53 115 -159 262 -266 370 -41
41 -83 82 -94 90 -108 83 -154 112 -249 161 -114 59 -226 98 -355 123 -104 21
-179 28 -160 16z"/>
<path d="M13525 17390 c-3 -5 -1 -10 4 -10 6 0 11 5 11 10 0 6 -2 10 -4 10 -3
0 -8 -4 -11 -10z"/>
<path d="M13670 17338 c0 -7 4 -19 9 -26 7 -12 12 -12 30 -1 27 17 27 25 -1
33 -33 8 -38 8 -38 -6z"/>
<path d="M13751 17316 c-13 -15 -6 -23 44 -46 17 -8 39 -21 49 -30 17 -13 18
-13 11 0 -6 12 -5 13 6 3 7 -7 19 -13 26 -13 6 0 34 -13 60 -28 26 -15 67 -34
91 -41 23 -8 42 -17 42 -20 0 -3 28 -19 61 -36 34 -16 64 -35 66 -42 3 -7 9
-10 14 -7 5 3 9 1 9 -5 0 -6 7 -8 15 -5 8 4 15 1 15 -5 0 -6 6 -11 13 -11 8 0
24 -9 37 -20 13 -11 34 -23 47 -26 13 -4 23 -10 23 -15 0 -5 3 -8 8 -7 17 5
122 -62 122 -78 0 -5 23 -20 52 -34 28 -14 56 -30 62 -36 6 -5 47 -33 91 -62
44 -28 98 -70 119 -92 22 -22 43 -40 46 -40 45 0 656 -591 634 -613 -3 -3 3
-8 13 -11 10 -3 26 -18 35 -33 10 -16 41 -55 69 -88 60 -70 118 -143 139 -175
8 -12 32 -45 53 -73 20 -28 37 -56 37 -63 0 -7 4 -14 8 -16 5 -1 25 -30 46
-63 22 -33 59 -91 83 -128 24 -38 48 -78 54 -90 5 -12 19 -38 31 -57 11 -19
34 -60 50 -90 16 -30 33 -59 37 -65 5 -5 27 -53 51 -105 56 -127 64 -144 95
-220 14 -36 33 -80 42 -99 29 -64 139 -383 146 -422 2 -13 7 -31 10 -39 3 -8
7 -26 10 -40 3 -14 12 -52 22 -85 28 -99 33 -121 59 -260 53 -290 64 -366 83
-595 12 -142 7 -701 -6 -810 -7 -52 -16 -131 -21 -175 -16 -147 -31 -229 -62
-340 -6 -22 -12 -51 -14 -65 -1 -14 -6 -41 -9 -60 -8 -48 -83 -330 -94 -355
-5 -11 -21 -58 -36 -105 -15 -47 -32 -96 -38 -110 -5 -14 -11 -29 -12 -35 -14
-61 -138 -352 -155 -365 -4 -3 -11 -16 -15 -30 -4 -13 -22 -47 -40 -75 -41
-65 -86 -139 -153 -252 -30 -51 -58 -93 -63 -93 -5 0 -9 -7 -9 -15 0 -9 -7
-18 -15 -21 -8 -4 -13 -10 -10 -14 2 -4 -13 -32 -35 -61 -22 -30 -56 -78 -76
-106 -20 -29 -41 -53 -45 -53 -5 0 -9 -5 -9 -11 0 -9 -85 -136 -100 -149 -3
-3 -39 -48 -79 -100 -133 -173 -508 -556 -636 -651 -33 -24 -87 -67 -121 -96
-34 -29 -65 -53 -70 -53 -5 0 -15 -9 -22 -20 -10 -17 -10 -20 6 -20 10 0 22 4
27 9 22 21 103 60 110 53 5 -4 5 -2 2 4 -3 6 9 18 28 27 19 9 35 21 35 26 0 7
42 28 70 35 3 1 18 14 34 29 16 14 33 24 38 21 4 -3 7 0 6 8 -2 8 7 13 25 13
30 -1 37 11 10 18 -17 4 -17 5 -1 6 10 0 30 11 44 24 14 12 33 22 42 22 10 0
17 6 17 13 0 15 26 33 37 26 4 -3 8 -1 8 4 0 4 20 19 45 31 25 12 71 47 103
77 80 78 93 88 129 109 17 10 34 27 37 37 2 11 14 22 25 25 12 3 21 12 21 19
0 8 5 14 10 14 6 0 25 16 44 36 19 20 39 33 45 30 6 -4 8 2 6 14 -2 13 1 20
11 20 8 0 14 5 14 10 0 6 12 11 28 11 15 1 20 3 10 6 -27 7 -10 28 43 53 27
13 49 27 49 31 0 4 16 24 35 43 19 20 35 43 35 51 0 7 9 17 20 20 11 4 18 10
16 14 -5 8 46 75 104 135 65 69 85 93 88 107 2 7 12 19 23 27 11 7 17 17 14
22 -5 8 36 69 87 129 7 8 13 20 14 25 5 28 25 67 44 86 26 26 60 86 60 105 0
8 5 15 10 15 6 0 10 6 10 14 0 7 7 19 15 26 8 7 14 18 13 24 -3 10 37 83 51
96 4 3 8 14 9 25 2 11 9 23 15 27 7 4 8 8 2 8 -5 0 -3 6 6 13 9 7 21 29 28 50
7 20 16 37 21 37 4 0 6 16 3 35 -4 30 -2 35 16 35 14 0 19 5 15 15 -4 8 1 26
10 40 9 13 16 33 16 44 0 11 5 21 10 23 6 2 12 13 13 26 1 12 8 22 17 22 12 0
12 2 2 9 -11 6 -10 10 4 15 9 3 14 9 11 13 -3 3 0 20 7 37 7 17 13 33 14 36 0
3 3 12 6 20 3 8 10 34 16 57 6 23 17 49 25 57 8 8 15 24 15 35 0 12 5 21 11
21 6 0 8 7 5 16 -4 9 2 35 12 58 11 23 27 77 37 121 9 44 21 88 26 97 5 10 9
27 9 38 0 11 4 20 9 20 7 0 17 52 38 203 6 46 -14 51 -22 5 -3 -18 -7 -44 -9
-58 -7 -42 -17 -60 -35 -61 -9 0 -11 -3 -5 -5 9 -4 9 -14 1 -41 -9 -29 -12
-32 -18 -17 -7 17 -8 16 -8 -3 -1 -13 4 -23 9 -23 6 0 10 -13 10 -30 0 -18 -5
-30 -13 -30 -7 0 -13 -8 -14 -17 -5 -49 -24 -125 -41 -164 -10 -24 -25 -70
-32 -102 -15 -64 -36 -72 -33 -11 4 74 48 260 69 292 15 22 20 52 28 149 5 62
11 74 34 67 13 -5 14 -4 4 4 -11 7 -11 18 -3 48 5 21 13 80 16 129 4 50 9 94
12 98 7 12 15 57 18 107 1 25 6 70 10 100 4 30 7 79 7 108 -1 39 2 51 11 45 9
-5 9 -4 0 8 -8 10 -10 46 -6 119 9 173 3 385 -13 424 -5 14 -4 17 5 11 10 -6
11 -3 1 15 -10 18 -9 24 1 31 8 5 9 9 3 9 -6 0 -11 17 -12 38 -1 27 1 33 8 22
9 -13 10 -13 10 0 0 9 -4 20 -10 26 -5 5 -12 30 -14 54 -3 25 -6 45 -7 45 -1
0 -3 20 -4 43 -2 24 -6 46 -9 49 -3 4 -1 12 5 20 8 9 8 13 1 13 -6 0 -9 14 -7
33 3 23 2 28 -5 17 -7 -11 -10 -5 -10 23 0 21 -4 46 -9 55 -5 9 -11 46 -15 82
-5 63 -13 115 -16 115 -1 0 -8 25 -15 55 -28 116 -47 196 -52 210 -6 15 -14
65 -16 88 0 6 -5 12 -10 12 -5 0 -6 8 -3 17 4 9 2 19 -4 23 -6 4 -12 15 -15
26 -2 10 -8 33 -14 51 -5 17 -7 34 -3 37 3 3 0 6 -6 6 -6 0 -14 15 -17 33 -4
17 -14 44 -21 59 -8 15 -15 35 -17 45 -1 10 -15 44 -31 75 -15 32 -29 69 -30
83 0 14 -3 25 -6 25 -11 0 -41 60 -35 70 3 6 3 10 -2 10 -12 0 -32 50 -26 66
3 8 -1 14 -11 14 -9 0 -16 4 -16 10 0 5 -18 49 -41 96 -23 48 -42 93 -43 101
-1 8 -7 18 -12 21 -5 4 -15 18 -23 32 -42 73 -131 234 -131 236 0 2 -11 15
-25 30 -13 14 -23 30 -20 34 2 4 -11 25 -30 46 -19 21 -35 44 -35 51 0 7 -11
23 -23 37 -13 14 -32 37 -43 52 -10 14 -34 44 -52 66 -17 22 -29 45 -25 50 3
6 1 8 -5 4 -6 -3 -13 2 -16 11 -4 10 -24 37 -46 61 -22 24 -40 52 -40 62 0 12
-9 22 -23 25 -15 4 -29 19 -37 41 -8 19 -19 34 -24 34 -13 0 -156 145 -156
157 0 5 -27 32 -60 61 -33 30 -58 58 -55 63 4 5 0 9 -9 9 -8 0 -32 19 -53 42
-65 71 -105 108 -118 108 -6 0 -25 15 -42 33 -53 57 -116 110 -202 172 -45 32
-95 69 -109 82 -15 13 -30 23 -34 23 -5 0 -17 9 -27 19 -10 10 -39 31 -62 45
-24 15 -53 32 -64 39 -11 7 -28 21 -38 31 -10 11 -24 21 -32 22 -26 4 -104 59
-105 73 0 8 -3 12 -6 8 -8 -7 -61 19 -83 41 -18 18 -82 47 -95 43 -10 -2 -56
18 -66 29 -7 8 -115 60 -124 60 -4 0 -19 9 -34 20 -15 11 -39 23 -53 25 -22 4
-67 25 -134 63 -11 6 -49 20 -85 31 -90 27 -184 64 -188 73 -5 12 -18 10 -31
-6z"/>
<path d="M19463 17065 c2 -23 -2 -29 -15 -27 -11 2 -23 -9 -33 -28 -16 -30 -9
-40 12 -19 20 20 43 2 43 -33 0 -35 -26 -68 -48 -60 -7 2 -12 -1 -12 -7 0 -6
-8 -11 -19 -11 -12 0 -20 -9 -23 -25 -6 -28 1 -32 21 -12 11 10 14 10 18 0 3
-7 12 -13 21 -13 15 -1 15 -2 0 -14 -10 -7 -18 -21 -18 -30 0 -10 -4 -14 -10
-11 -5 3 -10 1 -10 -4 0 -6 -7 -11 -16 -11 -14 0 -14 -1 0 -16 9 -8 13 -20 10
-26 -4 -6 -10 -5 -15 3 -6 10 -9 10 -9 2 0 -6 5 -15 11 -19 8 -5 8 -8 0 -13
-6 -4 -12 -24 -13 -44 -2 -20 -6 -37 -10 -37 -13 0 -9 -28 5 -33 9 -4 8 -8 -3
-16 -13 -10 -13 -11 0 -11 11 -1 10 -4 -4 -15 -11 -9 -14 -15 -7 -15 7 0 19
-7 27 -15 11 -11 12 -15 3 -15 -10 0 -10 -3 -2 -11 13 -13 -6 -39 -26 -39 -6
0 -11 -7 -11 -15 0 -16 -27 -47 -56 -63 -14 -8 20 -9 121 -5 77 3 141 6 143 7
2 3 -9 131 -43 496 -9 96 -20 189 -25 205 l-9 30 2 -30z m-73 -395 c0 -5 -4
-10 -10 -10 -5 0 -10 5 -10 10 0 6 5 10 10 10 6 0 10 -4 10 -10z"/>
<path d="M17936 16975 c-9 -26 -7 -32 5 -12 6 10 9 21 6 23 -2 3 -7 -2 -11
-11z"/>
<path d="M19287 16948 c-42 -39 -135 -156 -220 -277 -33 -47 -83 -117 -110
-156 -78 -111 -139 -207 -154 -242 -19 -46 -2 -161 27 -185 11 -9 20 -20 20
-24 0 -4 7 -14 15 -23 56 -59 144 -159 163 -185 36 -52 237 -243 262 -251 19
-6 29 -2 47 19 22 26 22 28 7 59 -18 34 -165 251 -290 427 -42 58 -91 128
-110 156 l-35 51 66 89 c36 49 79 107 96 129 75 100 203 285 229 330 31 55 47
115 32 115 -5 0 -26 -15 -45 -32z"/>
<path d="M19412 16944 c-7 -8 -11 -14 -10 -15 26 -7 38 -5 38 6 0 21 -13 25
-28 9z"/>
<path d="M19375 16930 c-3 -5 -1 -10 4 -10 6 0 11 5 11 10 0 6 -2 10 -4 10 -3
0 -8 -4 -11 -10z"/>
<path d="M20700 16880 c0 -5 5 -10 11 -10 5 0 7 5 4 10 -3 6 -8 10 -11 10 -2
0 -4 -4 -4 -10z"/>
<path d="M19391 16814 c0 -11 3 -14 6 -6 3 7 2 16 -1 19 -3 4 -6 -2 -5 -13z"/>
<path d="M19340 16806 c0 -2 9 -6 20 -9 11 -3 20 -1 20 4 0 5 -9 9 -20 9 -11
0 -20 -2 -20 -4z"/>
<path d="M19309 16728 c0 -7 -2 -21 -4 -30 -2 -10 1 -18 6 -18 5 0 9 14 9 30
0 29 -9 44 -11 18z"/>
<path d="M5945 16670 c-3 -6 1 -7 9 -4 18 7 21 14 7 14 -6 0 -13 -4 -16 -10z"/>
<path d="M5875 16614 l-30 -26 33 22 c17 12 32 23 32 26 0 7 -4 5 -35 -22z"/>
<path d="M5789 16548 c-20 -18 -26 -26 -15 -17 12 9 32 23 46 32 13 10 20 17
14 17 -6 0 -26 -15 -45 -32z"/>
<path d="M19295 16561 c-3 -5 -1 -12 5 -16 5 -3 10 1 10 9 0 18 -6 21 -15 7z"/>
<path d="M19290 16510 c0 -5 7 -7 15 -4 8 4 15 8 15 10 0 2 -7 4 -15 4 -8 0
-15 -4 -15 -10z"/>
<path d="M5605 16403 c-336 -275 -767 -714 -1005 -1023 -285 -372 -449 -630
-630 -995 -143 -288 -271 -611 -335 -850 -62 -229 -76 -287 -124 -535 -12 -63
-37 -272 -52 -435 -13 -133 -6 -668 10 -780 6 -44 18 -132 26 -195 33 -266
105 -569 206 -870 30 -91 90 -253 109 -295 5 -11 41 -92 80 -180 75 -167 195
-400 236 -460 23 -33 17 -48 -46 -110 -138 -137 -252 -362 -296 -587 -9 -46
-19 -155 -21 -243 -4 -135 -1 -178 17 -274 80 -426 315 -747 650 -892 94 -41
192 -64 240 -57 16 3 30 1 30 -4 0 -4 11 -8 25 -8 14 0 25 3 25 8 0 9 49 32
71 32 9 0 22 6 28 13 6 8 30 20 53 27 24 7 47 17 53 22 5 4 17 8 27 8 10 0 18
7 18 15 0 10 10 15 32 15 17 0 28 3 25 7 -9 9 23 43 40 43 22 0 93 51 93 67 0
8 4 12 9 9 5 -3 11 1 15 9 3 8 12 15 20 15 7 0 17 11 20 25 4 14 13 25 21 25
8 0 15 4 15 9 0 5 12 23 28 39 28 30 79 103 78 112 -1 3 8 19 19 35 12 17 31
53 43 80 13 28 27 58 33 67 5 10 9 26 9 36 0 10 9 34 19 55 12 23 15 37 7 37
-8 0 -7 3 1 8 7 4 18 48 25 97 26 184 8 499 -33 594 -10 24 -19 49 -19 56 0 6
-11 34 -25 61 -14 27 -25 57 -25 67 0 9 -4 17 -10 17 -5 0 -10 6 -10 14 0 7
-7 19 -15 26 -8 7 -15 20 -15 29 0 17 -52 92 -112 165 -18 21 -37 46 -42 55
-11 18 -54 61 -63 61 -5 0 -42 28 -93 71 -35 29 -161 109 -172 109 -5 0 -20 8
-35 17 -14 10 -33 18 -42 20 -8 1 -24 6 -36 11 -87 40 -114 47 -185 46 -86 -1
-186 -28 -303 -82 l-78 -35 -17 24 c-27 38 -144 248 -179 319 -72 150 -143
307 -143 315 0 4 -9 26 -20 49 -54 112 -147 392 -208 626 -166 630 -193 1292
-81 1930 28 155 103 459 131 530 6 14 23 66 39 115 33 107 50 152 67 182 7 12
12 27 12 33 0 6 9 30 20 52 11 23 20 46 20 50 0 5 23 57 52 116 29 59 52 109
53 113 0 3 14 34 32 70 17 35 45 93 62 129 17 36 47 90 67 120 20 30 48 80 63
110 14 31 37 70 49 87 12 17 22 34 22 37 0 3 15 28 33 54 18 26 44 67 58 92
43 76 53 93 77 120 13 15 45 63 71 106 27 44 58 88 70 98 12 11 21 25 21 33 0
7 4 13 8 13 4 0 21 20 36 45 16 25 33 45 37 45 5 0 9 5 9 11 0 13 101 136 190
232 36 38 70 79 77 90 24 44 440 446 608 588 55 46 121 109 115 108 -3 0 -41
-30 -85 -66z m-1055 -6672 c0 -5 -18 -16 -41 -25 -22 -9 -57 -33 -77 -54 -20
-21 -46 -45 -57 -53 -11 -8 -38 -41 -60 -74 -50 -76 -75 -105 -92 -105 -7 0
-13 -3 -13 -8 0 -4 -14 -23 -31 -41 -115 -126 -166 -245 -189 -444 -20 -167
-4 -369 38 -486 5 -14 16 -46 23 -71 30 -106 128 -245 225 -320 18 -14 56 -44
86 -67 29 -22 104 -67 166 -98 62 -31 110 -60 107 -65 -10 -17 -82 -11 -147
11 -66 22 -151 65 -208 105 -72 51 -175 171 -236 275 -74 127 -95 179 -134
334 -26 103 -30 138 -30 253 0 127 24 301 49 350 5 9 17 42 26 72 26 80 69
165 110 214 19 24 35 47 35 52 0 15 109 114 169 153 77 50 199 100 244 101 20
0 37 -4 37 -9z m101 -310 c23 -19 24 -24 29 -213 l5 -193 32 3 c38 4 82 -33
84 -70 3 -60 -4 -74 -62 -126 l-59 -54 0 -193 c0 -107 4 -196 9 -199 4 -3 100
-10 212 -16 200 -10 204 -11 227 -36 31 -35 30 -87 -4 -121 l-26 -26 -162 7
c-312 13 -360 20 -373 53 -4 10 -18 29 -31 43 -37 39 -42 63 -42 196 l0 126
-30 -7 c-16 -4 -30 -2 -30 3 0 5 14 21 30 35 28 25 41 67 21 67 -5 0 -21 -13
-34 -30 -14 -16 -35 -30 -46 -30 -36 0 -53 -11 -40 -26 8 -10 8 -14 1 -14 -15
0 -32 33 -32 62 0 29 21 61 43 64 9 1 39 22 67 46 l51 43 -2 285 c0 157 2 292
6 301 16 40 116 53 156 20z m107 -97 c2 -16 7 -33 11 -39 16 -22 13 -127 -4
-166 -15 -33 -20 -37 -36 -28 -17 9 -19 23 -19 134 0 89 3 125 13 128 22 9 32
1 35 -29z m108 -391 c-3 -8 -1 -11 4 -8 16 10 12 -61 -5 -75 -8 -7 -12 -16 -9
-21 3 -5 0 -17 -5 -28 -6 -11 -14 -37 -17 -58 -3 -21 -9 -42 -14 -48 -4 -5
-10 -36 -13 -67 -5 -61 -57 -168 -81 -168 -13 0 -26 123 -26 238 0 48 25 112
44 112 22 0 76 65 82 100 7 36 21 53 37 43 4 -3 6 -12 3 -20z"/>
<path d="M4550 9396 c-9 -12 -7 -15 12 -18 l23 -3 3 -233 c1 -135 6 -231 11
-227 6 3 8 99 5 223 -2 119 -4 225 -4 234 0 25 -35 41 -50 24z"/>
<path d="M4665 8970 c-3 -5 0 -10 8 -10 14 0 47 -30 47 -43 0 -3 -15 -23 -32
-44 l-33 -38 35 26 c39 29 48 60 29 95 -13 24 -43 32 -54 14z"/>
<path d="M4593 8570 c0 -36 2 -50 4 -32 2 17 2 47 0 65 -2 17 -4 3 -4 -33z"/>
<path d="M4592 8450 c0 -14 2 -19 5 -12 2 6 2 18 0 25 -3 6 -5 1 -5 -13z"/>
<path d="M4590 8383 c0 -5 7 -18 15 -29 13 -18 14 -18 8 4 -5 22 -23 41 -23
25z"/>
<path d="M4740 8330 c-120 -7 -69 -17 125 -25 177 -7 215 -18 194 -56 -10 -19
-17 -20 -82 -15 -166 13 -409 18 -403 8 10 -17 63 -21 286 -24 l215 -2 3 34
c5 62 -10 70 -138 78 -63 4 -153 5 -200 2z"/>
<path d="M11982 15747 c-18 -18 -37 -48 -42 -66 -7 -25 -14 -247 -10 -338 0
-7 11 -13 25 -13 l25 0 0 183 c0 165 2 186 21 221 11 21 18 40 16 42 -2 2 -18
-11 -35 -29z"/>
<path d="M12678 15741 c-37 -43 -47 -100 -50 -263 -3 -146 -3 -147 20 -151 12
-2 25 -1 27 3 3 4 4 87 4 184 -1 156 1 180 19 216 23 47 14 52 -20 11z"/>
<path d="M12051 15653 c-5 -10 -11 -99 -12 -199 -4 -191 0 -214 42 -214 22 0
26 38 8 71 -10 20 -19 154 -18 292 0 69 -4 79 -20 50z"/>
<path d="M12742 15570 c0 -14 2 -19 5 -12 2 6 2 18 0 25 -3 6 -5 1 -5 -13z"/>
<path d="M12740 15415 c0 -8 5 -15 10 -15 6 0 10 7 10 15 0 8 -4 15 -10 15 -5
0 -10 -7 -10 -15z"/>
<path d="M12740 15380 c0 -5 5 -10 10 -10 6 0 10 5 10 10 0 6 -4 10 -10 10 -5
0 -10 -4 -10 -10z"/>
<path d="M12740 15293 c0 -30 26 -63 48 -63 7 0 12 14 12 31 0 25 -3 29 -14
20 -10 -9 -17 -7 -27 5 -8 10 -12 19 -11 21 2 3 1 7 -2 11 -3 3 -6 -8 -6 -25z"/>
<path d="M10700 15249 c-37 -46 -49 -78 -50 -132 0 -61 43 -128 100 -157 61
-31 77 -24 29 13 -64 48 -84 89 -84 167 1 48 7 75 23 103 26 45 16 48 -18 6z"/>
<path d="M11510 14935 c0 -8 2 -15 4 -15 2 0 6 7 10 15 3 8 1 15 -4 15 -6 0
-10 -7 -10 -15z"/>
<path d="M11370 14924 c13 -4 15 -235 15 -1999 l0 -1995 29 0 c27 0 28 2 22
31 -3 17 -6 917 -6 2000 l0 1969 -37 -1 c-21 -1 -31 -3 -23 -5z"/>
<path d="M11502 14888 c0 -13 -2 -124 -4 -248 -3 -187 3 -377 11 -320 6 50 7
590 1 590 -4 0 -8 -10 -8 -22z"/>
<path d="M13235 14887 c98 -33 139 -56 224 -128 266 -225 307 -630 91 -914
-27 -35 -102 -105 -113 -105 -6 0 -8 -3 -4 -6 10 -11 70 33 134 98 116 118
176 267 175 438 -1 188 -73 351 -211 478 -81 75 -221 142 -321 156 -40 5 -37
3 25 -17z"/>
<path d="M13755 14528 c42 -140 52 -343 22 -468 -41 -167 -54 -198 -130 -295
-36 -46 -34 -45 24 15 55 56 153 210 134 210 -3 0 1 10 9 23 30 47 55 248 33
275 -5 6 -7 12 -4 12 6 0 -22 108 -49 192 -8 25 -22 49 -31 52 -12 5 -14 2 -8
-16z"/>
<path d="M11495 14200 c3 -5 8 -10 11 -10 2 0 4 5 4 10 0 6 -5 10 -11 10 -5 0
-7 -4 -4 -10z"/>
<path d="M11503 14140 c0 -25 2 -35 4 -22 2 12 2 32 0 45 -2 12 -4 2 -4 -23z"/>
<path d="M11503 13615 c0 -44 2 -61 4 -37 2 23 2 59 0 80 -2 20 -4 1 -4 -43z"/>
<path d="M11501 13504 c0 -11 3 -14 6 -6 3 7 2 16 -1 19 -3 4 -6 -2 -5 -13z"/>
<path d="M13165 13202 c90 -27 147 -55 207 -101 172 -134 263 -274 302 -463
24 -114 24 -1012 0 -1125 -33 -159 -103 -286 -223 -402 -70 -67 -43 -58 46 16
103 86 186 225 224 372 17 70 19 116 19 581 0 555 -3 586 -60 709 -87 186
-219 313 -403 389 -40 17 -94 33 -122 36 l-50 6 60 -18z"/>
<path d="M17046 13165 c8 -37 14 -45 14 -19 0 10 -5 26 -10 34 -8 11 -9 7 -4
-15z"/>
<path d="M18836 12939 c-25 -23 -46 -49 -46 -60 0 -11 -4 -17 -10 -14 -5 3
-10 1 -10 -4 0 -6 5 -11 10 -11 6 0 8 -11 4 -27 -12 -51 -4 -135 15 -172 6
-10 7 -21 3 -23 -4 -2 1 -19 10 -38 14 -26 18 -30 18 -14 0 21 39 63 78 83 24
13 24 9 3 112 -6 26 -11 83 -12 128 -1 44 -5 81 -9 81 -4 0 -28 -18 -54 -41z"/>
<path d="M17042 12820 c0 -14 2 -19 5 -12 2 6 2 18 0 25 -3 6 -5 1 -5 -13z"/>
<path d="M17062 12780 c0 -14 2 -19 5 -12 2 6 2 18 0 25 -3 6 -5 1 -5 -13z"/>
<path d="M13760 12740 c0 -5 5 -10 11 -10 5 0 7 5 4 10 -3 6 -8 10 -11 10 -2
0 -4 -4 -4 -10z"/>
<path d="M17042 12710 c0 -19 2 -27 5 -17 2 9 2 25 0 35 -3 9 -5 1 -5 -18z"/>
<path d="M13781 12695 c0 -16 4 -48 10 -70 13 -51 13 -1047 0 -1107 -5 -24
-13 -63 -16 -88 -4 -24 -11 -53 -17 -63 -5 -11 -7 -32 -4 -48 4 -21 -1 -39
-19 -65 -25 -37 -33 -60 -17 -50 8 5 52 90 87 169 15 35 28 159 26 267 -2 245
0 774 4 780 9 15 -24 249 -39 278 l-15 27 0 -30z"/>
<path d="M17026 12617 c3 -10 9 -15 12 -12 3 3 0 11 -7 18 -10 9 -11 8 -5 -6z"/>
<path d="M17004 12480 c0 -16 3 -27 8 -24 4 3 8 14 8 24 0 10 -4 21 -8 24 -5
3 -8 -8 -8 -24z"/>
<path d="M17000 12359 c-11 -6 -12 -9 -2 -9 7 0 11 -4 8 -9 -3 -4 -7 -50 -10
-102 -2 -52 -2 -82 1 -66 2 15 9 27 14 27 6 0 8 8 4 19 -3 10 -1 29 4 43 5 15
5 30 0 41 -6 11 -6 24 1 36 12 23 1 34 -20 20z"/>
<path d="M16949 12241 c4 -49 7 -47 13 10 2 20 -1 36 -7 36 -6 0 -8 -19 -6
-46z"/>
<path d="M16928 12175 c-3 -14 -1 -25 3 -25 5 0 9 11 9 25 0 14 -2 25 -4 25
-2 0 -6 -11 -8 -25z"/>
<path d="M16960 12190 c-9 -6 -10 -10 -3 -10 6 0 15 5 18 10 8 12 4 12 -15 0z"/>
<path d="M16951 12154 c0 -11 3 -14 6 -6 3 7 2 16 -1 19 -3 4 -6 -2 -5 -13z"/>
<path d="M16970 12120 c0 -11 5 -20 10 -20 6 0 10 9 10 20 0 11 -4 20 -10 20
-5 0 -10 -9 -10 -20z"/>
<path d="M16917 12113 c-11 -10 -8 -20 7 -26 10 -4 12 0 9 14 -6 21 -7 22 -16
12z"/>
<path d="M16960 12070 c0 -11 7 -20 15 -20 8 0 15 9 15 20 0 11 -7 20 -15 20
-8 0 -15 -9 -15 -20z"/>
<path d="M18822 12052 c-6 -14 -12 -32 -12 -40 0 -8 -8 -26 -18 -40 -20 -30
-23 -63 -5 -69 18 -6 32 28 42 103 6 38 9 69 8 70 -1 2 -8 -9 -15 -24z"/>
<path d="M16910 12056 c0 -9 5 -16 10 -16 6 0 10 4 10 9 0 6 -4 13 -10 16 -5
3 -10 -1 -10 -9z"/>
<path d="M18764 11875 c-3 -8 -3 -19 1 -25 4 -6 -4 -25 -18 -43 -31 -42 -41
-81 -23 -96 11 -9 17 1 34 51 29 89 36 128 22 128 -6 0 -13 -7 -16 -15z"/>
<path d="M18667 11623 c-51 -121 -25 -137 29 -17 20 45 25 74 15 92 -5 8 -21
-20 -44 -75z"/>
<path d="M16820 11680 c0 -11 2 -20 4 -20 2 0 6 9 9 20 3 11 1 20 -4 20 -5 0
-9 -9 -9 -20z"/>
<path d="M6650 11617 c0 -2 8 -19 18 -39 13 -28 21 -34 37 -28 18 6 17 8 -8
25 -15 9 -27 24 -27 31 0 8 -4 14 -10 14 -5 0 -10 -1 -10 -3z"/>
<path d="M16806 11605 c-3 -8 -1 -15 4 -15 6 0 10 7 10 15 0 8 -2 15 -4 15 -2
0 -6 -7 -10 -15z"/>
<path d="M6780 11580 c0 -5 5 -10 11 -10 5 0 7 5 4 10 -3 6 -8 10 -11 10 -2 0
-4 -4 -4 -10z"/>
<path d="M6630 11565 c0 -8 4 -15 10 -15 5 0 7 7 4 15 -4 8 -8 15 -10 15 -2 0
-4 -7 -4 -15z"/>
<path d="M20631 11524 c0 -11 3 -14 6 -6 3 7 2 16 -1 19 -3 4 -6 -2 -5 -13z"/>
<path d="M18587 11442 c-21 -42 -45 -90 -54 -107 -39 -69 -159 -263 -185 -299
-16 -22 -26 -42 -23 -45 7 -7 54 50 55 67 0 6 4 12 8 12 5 0 15 12 23 28 21
41 72 117 81 120 4 2 8 9 8 16 0 7 9 21 20 31 11 10 17 22 14 26 -3 5 6 24 20
42 15 19 26 41 26 50 0 9 5 19 10 22 19 12 53 96 44 105 -6 6 -24 -21 -47 -68z"/>
<path d="M6645 11500 c3 -5 8 -10 11 -10 2 0 4 5 4 10 0 6 -5 10 -11 10 -5 0
-7 -4 -4 -10z"/>
<path d="M6858 11483 c7 -3 16 -2 19 1 4 3 -2 6 -13 5 -11 0 -14 -3 -6 -6z"/>
<path d="M6662 11460 c0 -14 2 -19 5 -12 2 6 2 18 0 25 -3 6 -5 1 -5 -13z"/>
<path d="M6672 11410 c0 -14 2 -19 5 -12 2 6 2 18 0 25 -3 6 -5 1 -5 -13z"/>
<path d="M6701 11324 c0 -11 3 -14 6 -6 3 7 2 16 -1 19 -3 4 -6 -2 -5 -13z"/>
<path d="M20570 11275 c0 -8 2 -15 4 -15 2 0 6 7 10 15 3 8 1 15 -4 15 -6 0
-10 -7 -10 -15z"/>
<path d="M6720 11245 c0 -8 4 -15 10 -15 5 0 7 7 4 15 -4 8 -8 15 -10 15 -2 0
-4 -7 -4 -15z"/>
<path d="M13680 11170 c-6 -11 -8 -20 -6 -20 3 0 10 9 16 20 6 11 8 20 6 20
-3 0 -10 -9 -16 -20z"/>
<path d="M6761 11124 c0 -11 3 -14 6 -6 3 7 2 16 -1 19 -3 4 -6 -2 -5 -13z"/>
<path d="M13646 11124 c-5 -14 -4 -15 9 -4 17 14 19 20 6 20 -5 0 -12 -7 -15
-16z"/>
<path d="M6771 11084 c0 -11 3 -14 6 -6 3 7 2 16 -1 19 -3 4 -6 -2 -5 -13z"/>
<path d="M6796 11015 c4 -8 8 -15 10 -15 2 0 4 7 4 15 0 8 -4 15 -10 15 -5 0
-7 -7 -4 -15z"/>
<path d="M20490 10999 c0 -5 5 -7 10 -4 6 3 10 8 10 11 0 2 -4 4 -10 4 -5 0
-10 -5 -10 -11z"/>
<path d="M18288 10950 c-13 -17 -68 -85 -123 -151 -55 -66 -111 -135 -125
-152 l-24 -32 28 25 c15 14 73 79 128 145 55 66 108 129 117 140 17 21 34 55
26 55 -2 0 -14 -14 -27 -30z"/>
<path d="M11497 10898 c-8 -27 7 -55 34 -63 31 -10 35 2 11 28 -12 13 -22 28
-22 35 0 21 -18 22 -23 0z"/>
<path d="M10696 10825 c-38 -50 -49 -88 -41 -143 6 -39 15 -54 58 -94 61 -57
86 -64 36 -10 -19 20 -41 50 -47 65 -23 55 -10 158 26 200 8 9 10 17 5 17 -6
0 -23 -16 -37 -35z"/>
<path d="M20405 10760 c-3 -5 -1 -10 4 -10 6 0 11 5 11 10 0 6 -2 10 -4 10 -3
0 -8 -4 -11 -10z"/>
<path d="M20352 10648 c-16 -16 -15 -28 2 -28 16 0 29 27 17 34 -4 3 -13 0
-19 -6z"/>
<path d="M17989 10593 c-13 -16 -12 -17 4 -4 9 7 17 15 17 17 0 8 -8 3 -21
-13z"/>
<path d="M20315 10580 c3 -5 11 -10 16 -10 6 0 7 5 4 10 -3 6 -11 10 -16 10
-6 0 -7 -4 -4 -10z"/>
<path d="M17953 10558 c-22 -29 -24 -41 -3 -20 12 13 20 25 17 28 -2 2 -9 -1
-14 -8z"/>
<path d="M20312 10538 c-15 -15 -16 -38 -1 -38 6 0 9 6 6 14 -3 7 0 19 6 25 6
6 9 11 6 11 -3 0 -10 -5 -17 -12z"/>
<path d="M11943 10522 c-19 -12 -9 -345 11 -392 20 -45 73 -95 111 -104 22 -5
26 -4 15 4 -8 5 -22 10 -31 10 -9 0 -16 6 -16 13 0 7 -11 28 -24 46 -23 32
-24 39 -27 232 -3 201 -6 212 -39 191z"/>
<path d="M12634 10353 c4 -176 9 -213 28 -213 5 0 7 -4 4 -9 -9 -14 5 -42 18
-38 6 2 19 -7 29 -20 10 -13 24 -23 30 -23 7 0 5 6 -5 13 -9 7 -27 33 -40 57
-22 43 -23 55 -22 228 l1 182 -23 0 -24 0 4 -177z"/>
<path d="M20276 10455 c-3 -8 -1 -15 4 -15 13 0 22 18 11 24 -5 3 -11 -1 -15
-9z"/>
<path d="M20235 10400 c3 -5 2 -10 -3 -10 -5 0 -12 -9 -15 -19 -7 -28 17 -16
31 15 10 20 9 24 -4 24 -8 0 -12 -4 -9 -10z"/>
<path d="M20197 10326 c-3 -8 1 -17 9 -20 8 -3 14 1 14 9 0 20 -17 28 -23 11z"/>
<path d="M20170 10276 c0 -24 15 -26 28 -5 11 16 9 19 -8 19 -11 0 -20 -6 -20
-14z"/>
<path d="M20159 10243 c-1 -5 -1 -12 0 -17 1 -4 -4 -16 -11 -25 -8 -10 -4 -9
10 4 13 11 19 21 13 23 -6 2 -9 8 -5 13 3 5 3 9 0 9 -3 0 -7 -3 -7 -7z"/>
<path d="M20100 10136 c0 -8 -6 -21 -13 -28 -31 -31 -47 -78 -26 -78 6 0 9 7
5 15 -3 9 0 15 9 15 16 0 29 21 39 63 4 16 2 27 -4 27 -5 0 -10 -6 -10 -14z"/>
<path d="M12768 10033 c7 -3 16 -2 19 1 4 3 -2 6 -13 5 -11 0 -14 -3 -6 -6z"/>
<path d="M6628 10023 c7 -3 16 -2 19 1 4 3 -2 6 -13 5 -11 0 -14 -3 -6 -6z"/>
<path d="M20015 9989 c-9 -29 2 -36 20 -13 18 24 19 34 1 34 -8 0 -18 -9 -21
-21z"/>
<path d="M19953 9887 c-15 -25 -17 -34 -7 -34 8 0 14 6 14 13 0 7 8 17 18 23
12 7 14 13 6 21 -8 8 -17 2 -31 -23z"/>
<path d="M19920 9820 c-8 -5 -11 -12 -7 -16 4 -4 13 -2 19 4 15 15 7 24 -12
12z"/>
<path d="M19880 9760 c-9 -6 -10 -10 -3 -10 6 0 15 5 18 10 8 12 4 12 -15 0z"/>
<path d="M19846 9724 c-4 -10 -1 -14 6 -12 15 5 23 28 10 28 -5 0 -13 -7 -16
-16z"/>
<path d="M19820 9680 c-6 -11 -7 -20 -2 -20 6 0 12 9 15 20 3 11 3 20 1 20 -2
0 -8 -9 -14 -20z"/>
<path d="M19766 9601 c-9 -16 -16 -36 -16 -43 0 -7 9 5 21 26 11 21 18 40 15
43 -2 3 -12 -9 -20 -26z"/>
<path d="M19715 9533 l-17 -28 23 22 c12 12 20 25 17 28 -3 3 -13 -7 -23 -22z"/>
<path d="M19679 9483 c-13 -16 -12 -17 4 -4 9 7 17 15 17 17 0 8 -8 3 -21 -13z"/>
<path d="M19655 9450 c-3 -5 -1 -10 4 -10 6 0 11 5 11 10 0 6 -2 10 -4 10 -3
0 -8 -4 -11 -10z"/>
<path d="M19617 9404 c-10 -13 -14 -24 -10 -24 9 0 36 40 31 45 -2 2 -11 -8
-21 -21z"/>
<path d="M19550 9319 c0 -5 5 -7 10 -4 6 3 10 8 10 11 0 2 -4 4 -10 4 -5 0
-10 -5 -10 -11z"/>
<path d="M17696 9102 c-8 -14 12 -38 23 -27 6 6 4 14 -4 22 -8 7 -16 9 -19 5z"/>
<path d="M17639 9083 c-13 -16 -12 -17 4 -4 9 7 17 15 17 17 0 8 -8 3 -21 -13z"/>
<path d="M17641 9052 c-14 -8 -36 -15 -49 -17 -32 -3 -37 -12 -21 -32 13 -17
12 -17 -4 -4 -16 13 -24 9 -77 -44 -33 -33 -59 -64 -59 -70 3 -23 -2 -35 -12
-35 -8 0 -8 5 1 18 7 9 -5 -1 -25 -23 -21 -22 -49 -58 -64 -80 -14 -22 -30
-45 -36 -51 -11 -11 -100 -188 -133 -264 -25 -56 -55 -160 -48 -167 3 -3 8 8
12 23 4 16 12 36 19 44 7 8 15 25 17 37 2 15 7 20 16 14 10 -6 7 -14 -10 -36
-14 -18 -18 -30 -11 -32 7 -3 9 -12 6 -21 -5 -14 -3 -14 16 2 21 19 21 19 18
0 -1 -10 -6 -25 -10 -31 -5 -8 -4 -13 2 -13 6 0 11 4 11 9 0 15 39 20 50 7 5
-7 8 -15 6 -17 -17 -19 -45 -409 -29 -409 5 0 13 41 16 91 27 377 190 732 480
1049 18 19 31 39 29 43 -1 5 1 6 5 4 5 -3 16 0 24 7 24 17 -107 15 -140 -2z
m-159 -154 c-6 -6 -15 -8 -19 -4 -4 4 -1 11 7 16 19 12 27 3 12 -12z m-282
-440 c0 -19 -2 -20 -10 -8 -13 19 -13 30 0 30 6 0 10 -10 10 -22z m0 -108 c0
-5 -5 -10 -11 -10 -5 0 -7 5 -4 10 3 6 8 10 11 10 2 0 4 -4 4 -10z"/>
<path d="M14608 8863 c7 -3 16 -2 19 1 4 3 -2 6 -13 5 -11 0 -14 -3 -6 -6z"/>
<path d="M18231 8470 c-1 -47 -3 -175 -4 -285 -2 -189 -1 -200 17 -203 15 -3
17 0 11 14 -5 11 -11 141 -15 289 -3 149 -7 232 -9 185z"/>
<path d="M18895 7872 c0 -401 -3 -503 -14 -530 -20 -49 -6 -50 19 -2 21 42 21
48 18 514 -2 268 -8 480 -13 493 -7 14 -10 -151 -10 -475z"/>
<path d="M17185 8250 c3 -5 8 -10 11 -10 2 0 4 5 4 10 0 6 -5 10 -11 10 -5 0
-7 -4 -4 -10z"/>
<path d="M19567 8150 c9 -54 24 -83 18 -36 -3 21 -10 46 -15 55 -7 11 -8 6 -3
-19z"/>
<path d="M17070 8135 c0 -8 2 -15 4 -15 2 0 6 7 10 15 3 8 1 15 -4 15 -6 0
-10 -7 -10 -15z"/>
<path d="M19582 8050 c0 -14 2 -19 5 -12 2 6 2 18 0 25 -3 6 -5 1 -5 -13z"/>
<path d="M18122 7850 c0 -72 2 -107 8 -94 4 11 5 63 1 115 l-8 94 -1 -115z"/>
<path d="M19597 7920 c-3 -14 -8 -70 -11 -125 -6 -104 -32 -248 -60 -325 -18
-51 -20 -69 -7 -54 15 16 60 167 72 239 20 129 26 346 6 265z"/>
<path d="M18228 7513 c-2 -43 -1 -125 3 -183 4 -91 5 -81 7 78 2 184 -4 247
-10 105z"/>
<path d="M17098 7490 c-2 -8 0 -26 5 -41 6 -14 8 -32 5 -40 -3 -8 -47 -34 -97
-59 -50 -25 -91 -48 -91 -51 0 -3 22 -4 49 -1 74 7 116 -12 188 -85 42 -43 73
-66 93 -70 30 -4 30 -3 25 29 -8 49 -14 67 -45 133 -15 33 -30 70 -34 83 -4
12 -11 20 -15 18 -4 -3 -14 11 -21 30 -9 22 -19 33 -27 29 -8 -2 -17 5 -22 17
-6 16 -9 18 -13 8z"/>
<path d="M19477 7339 c-10 -23 -16 -43 -14 -46 6 -6 39 66 35 78 -2 5 -11 -9
-21 -32z"/>
<path d="M14669 4615 c-48 -26 -68 -129 -35 -180 28 -43 46 -22 46 54 0 36 4
82 10 100 5 19 9 36 7 37 -1 1 -14 -4 -28 -11z"/>
</g>
</svg>
